<?xml version="1.0" encoding="utf-8"?>
<svg viewBox="257.495 218.201 97.425 29.838" xmlns="http://www.w3.org/2000/svg">
  <path d="M 271.437 227.207 C 271.435 228.078 270.803 228.783 270.026 228.783 C 269.248 228.783 268.619 228.078 268.62 227.207 C 268.622 226.337 269.254 225.631 270.032 225.631 C 270.809 225.631 271.438 226.337 271.437 227.207 Z" style="stroke: rgb(255, 252, 252);" transform="matrix(0.999884, 0.015205, -0.015205, 0.999884, 3.4859, -4.07952)"/>
  <path d="M 269.914 228.407 L 269.975 228.407 L 269.971 230.883 L 269.91 230.883 L 269.914 228.407 Z" style="stroke: rgb(255, 252, 252); fill: rgb(255, 253, 253);" transform="matrix(0.999884, 0.015205, -0.015205, 0.999884, 3.52296, -4.07793)"/>
  <path d="M 269.943 227.042 L 270.004 227.042 L 270 228.931 L 269.939 228.931 L 269.943 227.042 Z" style="stroke: rgb(255, 252, 252); fill: rgb(255, 253, 253);" transform="matrix(0.999884, 0.015205, -0.015205, 0.999884, 3.497746, -4.078563)"/>
  <path d="M 269.713 226.536 L 269.897 226.536 L 269.895 227.606 L 269.712 227.606 L 269.713 226.536 Z" style="stroke: rgb(255, 252, 252);" transform="matrix(0.999884, 0.015205, -0.015205, 0.999884, 3.483806, -4.076129)"/>
  <path d="M 270.202 226.735 L 270.75 226.735 L 270.749 227.238 L 270.201 227.238 L 270.202 226.735 Z" style="stroke: rgb(255, 252, 252);" transform="matrix(0.999884, 0.015205, -0.015205, 0.999884, 3.482599, -4.086342)"/>
  <path d="M 270.002 227.612 L 270.308 227.612 L 270.307 228.305 L 270.001 228.305 L 270.002 227.612 Z" style="stroke: rgb(255, 252, 252); fill: rgb(255, 253, 253);" transform="matrix(0.999884, 0.015205, -0.015205, 0.999884, 3.497341, -4.081349)"/>
  <path d="M 265.369 230.903 L 274.262 230.903 C 274.937 230.903 275.482 231.467 275.481 232.165 L 275.467 239.466 C 275.466 240.162 274.918 240.727 274.244 240.727 L 265.351 240.727 C 264.676 240.727 264.131 240.162 264.132 239.466 L 264.145 232.165 C 264.146 231.467 264.695 230.903 265.369 230.903 Z" style="fill-opacity: 0; stroke: rgb(255, 252, 252);" transform="matrix(0.999884, 0.015205, -0.015205, 0.999884, 3.616759, -4.075149)"/>
  <path d="M 268.023 234.67 C 268.023 234.913 267.955 235.11 267.871 235.11 C 267.786 235.11 267.718 234.913 267.718 234.67 C 267.719 234.426 267.787 234.229 267.872 234.229 C 267.956 234.229 268.024 234.426 268.023 234.67 Z" style="stroke: rgb(255, 252, 252); fill: rgb(255, 253, 253);" transform="matrix(0.999884, 0.015205, -0.015205, 0.999884, 3.599118, -4.045844)"/>
  <path d="M 271.913 234.697 C 271.912 234.923 271.87 235.106 271.82 235.106 C 271.77 235.106 271.728 234.923 271.73 234.697 C 271.73 234.471 271.771 234.288 271.821 234.288 C 271.873 234.288 271.913 234.471 271.913 234.697 Z" style="stroke: rgb(255, 252, 252); fill: rgb(255, 253, 253);" transform="matrix(0.999884, 0.015205, -0.015205, 0.999884, 3.599993, -4.105916)"/>
  <path d="M 268.111 238.359 L 271.75 238.359 L 271.746 240.461 L 268.106 240.461 L 268.111 238.359 Z" style="stroke: rgb(255, 252, 252); fill: rgb(255, 253, 253);" transform="matrix(0.999884, 0.015205, -0.015205, 0.999884, 3.671435, -4.076581)"/>
  <path d="M 261.963 235.484 L 263.569 235.484 L 263.569 235.816 L 261.963 235.816 L 261.963 235.484 Z" style="stroke: rgb(255, 252, 252);" transform="matrix(0.999884, 0.015205, -0.015205, 0.999884, 3.613436, -3.968117)"/>
  <path d="M 276.467 235.656 L 278.073 235.656 L 278.072 235.988 L 276.466 235.988 L 276.467 235.656 Z" style="fill-opacity: 0; fill-rule: evenodd; stroke: rgb(255, 252, 252); fill: rgb(255, 253, 253);" transform="matrix(0.999884, 0.015205, -0.015205, 0.999884, 3.617728, -4.188623)"/>
  <path d="M 285.081 237.517 Q 285.081 237.048 284.752 236.794 Q 284.422 236.54 283.563 236.282 Q 282.704 236.023 282.196 235.705 Q 281.224 235.095 281.224 234.114 Q 281.224 233.254 281.925 232.698 Q 282.625 232.141 283.744 232.141 Q 284.486 232.141 285.067 232.414 Q 285.648 232.688 285.98 233.193 Q 286.312 233.699 286.312 234.314 L 285.081 234.314 Q 285.081 233.757 284.732 233.442 Q 284.383 233.127 283.734 233.127 Q 283.128 233.127 282.794 233.386 Q 282.459 233.645 282.459 234.109 Q 282.459 234.499 282.821 234.761 Q 283.182 235.022 284.012 235.268 Q 284.842 235.515 285.345 235.83 Q 285.848 236.145 286.082 236.553 Q 286.317 236.96 286.317 237.507 Q 286.317 238.396 285.636 238.921 Q 284.955 239.446 283.788 239.446 Q 283.016 239.446 282.369 239.16 Q 281.722 238.874 281.363 238.371 Q 281.004 237.869 281.004 237.2 L 282.24 237.2 Q 282.24 237.805 282.64 238.137 Q 283.04 238.469 283.788 238.469 Q 284.432 238.469 284.757 238.208 Q 285.081 237.947 285.081 237.517 Z" style="fill: rgb(255, 253, 253); stroke-miterlimit: 5; stroke-width: 4px; white-space: pre;"/>
  <path d="M 291.91 237.712 L 292.75 234.065 L 293.907 234.065 L 292.466 239.348 L 291.49 239.348 L 290.357 235.72 L 289.244 239.348 L 288.267 239.348 L 286.822 234.065 L 287.979 234.065 L 288.833 237.673 L 289.917 234.065 L 290.811 234.065 Z" style="fill: rgb(255, 253, 253); stroke-miterlimit: 5; stroke-width: 4px; white-space: pre;"/>
  <path d="M 297.865 239.348 Q 297.787 239.197 297.729 238.855 Q 297.162 239.446 296.342 239.446 Q 295.546 239.446 295.043 238.992 Q 294.54 238.537 294.54 237.869 Q 294.54 237.024 295.167 236.572 Q 295.795 236.12 296.962 236.12 L 297.689 236.12 L 297.689 235.774 Q 297.689 235.364 297.46 235.117 Q 297.23 234.87 296.762 234.87 Q 296.356 234.87 296.098 235.073 Q 295.839 235.276 295.839 235.588 L 294.652 235.588 Q 294.652 235.154 294.94 234.775 Q 295.229 234.397 295.724 234.182 Q 296.22 233.967 296.83 233.967 Q 297.758 233.967 298.31 234.433 Q 298.861 234.9 298.876 235.744 L 298.876 238.127 Q 298.876 238.84 299.076 239.265 L 299.076 239.348 Z M 296.562 238.494 Q 296.913 238.494 297.223 238.323 Q 297.533 238.152 297.689 237.864 L 297.689 236.868 L 297.05 236.868 Q 296.391 236.868 296.059 237.097 Q 295.727 237.327 295.727 237.746 Q 295.727 238.088 295.954 238.291 Q 296.181 238.494 296.562 238.494 Z" style="fill: rgb(255, 253, 253); stroke-miterlimit: 5; stroke-width: 4px; white-space: pre;"/>
  <path d="M 302.867 235.149 Q 302.633 235.11 302.384 235.11 Q 301.568 235.11 301.285 235.735 L 301.285 239.348 L 300.098 239.348 L 300.098 234.065 L 301.231 234.065 L 301.261 234.656 Q 301.69 233.967 302.452 233.967 Q 302.706 233.967 302.872 234.036 Z" style="fill: rgb(255, 253, 253); stroke-miterlimit: 5; stroke-width: 4px; white-space: pre;"/>
  <path d="M 306.634 239.348 Q 306.556 239.197 306.497 238.855 Q 305.931 239.446 305.11 239.446 Q 304.314 239.446 303.811 238.992 Q 303.309 238.537 303.309 237.869 Q 303.309 237.024 303.936 236.572 Q 304.563 236.12 305.73 236.12 L 306.458 236.12 L 306.458 235.774 Q 306.458 235.364 306.228 235.117 Q 305.999 234.87 305.53 234.87 Q 305.125 234.87 304.866 235.073 Q 304.607 235.276 304.607 235.588 L 303.421 235.588 Q 303.421 235.154 303.709 234.775 Q 303.997 234.397 304.493 234.182 Q 304.988 233.967 305.599 233.967 Q 306.526 233.967 307.078 234.433 Q 307.63 234.9 307.645 235.744 L 307.645 238.127 Q 307.645 238.84 307.845 239.265 L 307.845 239.348 Z M 305.33 238.494 Q 305.682 238.494 305.992 238.323 Q 306.302 238.152 306.458 237.864 L 306.458 236.868 L 305.818 236.868 Q 305.159 236.868 304.827 237.097 Q 304.495 237.327 304.495 237.746 Q 304.495 238.088 304.722 238.291 Q 304.949 238.494 305.33 238.494 Z" style="fill: rgb(255, 253, 253); stroke-miterlimit: 5; stroke-width: 4px; white-space: pre;"/>
  <path d="M 312.979 237.693 L 310.225 237.693 L 309.649 239.348 L 308.365 239.348 L 311.051 232.239 L 312.159 232.239 L 314.849 239.348 L 313.56 239.348 Z M 310.572 236.697 L 312.633 236.697 L 311.602 233.747 Z" style="fill: rgb(255, 253, 253); stroke-miterlimit: 5; stroke-width: 4px; white-space: pre;"/>
  <path d="M 318.682 238.83 Q 318.159 239.446 317.197 239.446 Q 316.338 239.446 315.896 238.943 Q 315.454 238.44 315.454 237.488 L 315.454 234.065 L 316.641 234.065 L 316.641 237.473 Q 316.641 238.479 317.476 238.479 Q 318.34 238.479 318.643 237.859 L 318.643 234.065 L 319.829 234.065 L 319.829 239.348 L 318.711 239.348 Z" style="fill: rgb(255, 253, 253); stroke-miterlimit: 5; stroke-width: 4px; white-space: pre;"/>
  <path d="M 322.517 232.781 L 322.517 234.065 L 323.449 234.065 L 323.449 234.944 L 322.517 234.944 L 322.517 237.893 Q 322.517 238.196 322.636 238.33 Q 322.756 238.464 323.063 238.464 Q 323.268 238.464 323.478 238.415 L 323.478 239.333 Q 323.073 239.446 322.697 239.446 Q 321.33 239.446 321.33 237.937 L 321.33 234.944 L 320.461 234.944 L 320.461 234.065 L 321.33 234.065 L 321.33 232.781 Z" style="fill: rgb(255, 253, 253); stroke-miterlimit: 5; stroke-width: 4px; white-space: pre;"/>
  <path d="M 323.98 236.658 Q 323.98 235.881 324.288 235.259 Q 324.596 234.636 325.152 234.302 Q 325.709 233.967 326.432 233.967 Q 327.501 233.967 328.167 234.656 Q 328.834 235.344 328.888 236.482 L 328.893 236.76 Q 328.893 237.541 328.592 238.157 Q 328.292 238.772 327.733 239.109 Q 327.174 239.446 326.441 239.446 Q 325.323 239.446 324.652 238.701 Q 323.98 237.956 323.98 236.716 Z M 325.167 236.76 Q 325.167 237.576 325.504 238.037 Q 325.841 238.498 326.441 238.498 Q 327.042 238.498 327.376 238.03 Q 327.711 237.561 327.711 236.658 Q 327.711 235.857 327.367 235.388 Q 327.022 234.919 326.432 234.919 Q 325.851 234.919 325.509 235.381 Q 325.167 235.842 325.167 236.76 Z" style="fill: rgb(255, 253, 253); stroke-miterlimit: 5; stroke-width: 4px; white-space: pre;"/>
  <path d="M 331.008 234.065 L 331.042 234.617 Q 331.599 233.967 332.565 233.967 Q 333.625 233.967 334.016 234.778 Q 334.592 233.967 335.637 233.967 Q 336.511 233.967 336.938 234.451 Q 337.365 234.934 337.375 235.876 L 337.375 239.348 L 336.188 239.348 L 336.188 235.911 Q 336.188 235.408 335.969 235.173 Q 335.749 234.939 335.241 234.939 Q 334.836 234.939 334.58 235.156 Q 334.323 235.373 334.221 235.725 L 334.226 239.348 L 333.039 239.348 L 333.039 235.871 Q 333.015 234.939 332.087 234.939 Q 331.374 234.939 331.076 235.52 L 331.076 239.348 L 329.89 239.348 L 329.89 234.065 Z" style="fill: rgb(255, 253, 253); stroke-miterlimit: 5; stroke-width: 4px; white-space: pre;"/>
  <path d="M 341.755 239.348 Q 341.677 239.197 341.618 238.855 Q 341.052 239.446 340.231 239.446 Q 339.435 239.446 338.932 238.992 Q 338.43 238.537 338.43 237.869 Q 338.43 237.024 339.057 236.572 Q 339.684 236.12 340.851 236.12 L 341.579 236.12 L 341.579 235.774 Q 341.579 235.364 341.349 235.117 Q 341.12 234.87 340.651 234.87 Q 340.246 234.87 339.987 235.073 Q 339.728 235.276 339.728 235.588 L 338.542 235.588 Q 338.542 235.154 338.83 234.775 Q 339.118 234.397 339.614 234.182 Q 340.109 233.967 340.72 233.967 Q 341.647 233.967 342.199 234.433 Q 342.751 234.9 342.766 235.744 L 342.766 238.127 Q 342.766 238.84 342.966 239.265 L 342.966 239.348 Z M 340.451 238.494 Q 340.803 238.494 341.113 238.323 Q 341.423 238.152 341.579 237.864 L 341.579 236.868 L 340.939 236.868 Q 340.28 236.868 339.948 237.097 Q 339.616 237.327 339.616 237.746 Q 339.616 238.088 339.843 238.291 Q 340.07 238.494 340.451 238.494 Z" style="fill: rgb(255, 253, 253); stroke-miterlimit: 5; stroke-width: 4px; white-space: pre;"/>
  <path d="M 345.493 232.781 L 345.493 234.065 L 346.426 234.065 L 346.426 234.944 L 345.493 234.944 L 345.493 237.893 Q 345.493 238.196 345.613 238.33 Q 345.732 238.464 346.04 238.464 Q 346.245 238.464 346.455 238.415 L 346.455 239.333 Q 346.05 239.446 345.674 239.446 Q 344.306 239.446 344.306 237.937 L 344.306 234.944 L 343.437 234.944 L 343.437 234.065 L 344.306 234.065 L 344.306 232.781 Z" style="fill: rgb(255, 253, 253); stroke-miterlimit: 5; stroke-width: 4px; white-space: pre;"/>
  <path d="M 349.646 239.446 Q 348.518 239.446 347.818 238.735 Q 347.117 238.025 347.117 236.843 L 347.117 236.697 Q 347.117 235.906 347.422 235.283 Q 347.727 234.661 348.279 234.314 Q 348.831 233.967 349.51 233.967 Q 350.589 233.967 351.177 234.656 Q 351.765 235.344 351.765 236.604 L 351.765 237.082 L 348.313 237.082 Q 348.367 237.737 348.75 238.118 Q 349.134 238.498 349.715 238.498 Q 350.53 238.498 351.043 237.839 L 351.682 238.45 Q 351.365 238.923 350.835 239.184 Q 350.306 239.446 349.646 239.446 Z M 349.505 234.919 Q 349.016 234.919 348.716 235.261 Q 348.416 235.603 348.333 236.213 L 350.594 236.213 L 350.594 236.125 Q 350.555 235.53 350.276 235.224 Q 349.998 234.919 349.505 234.919 Z" style="fill: rgb(255, 253, 253); stroke-miterlimit: 5; stroke-width: 4px; white-space: pre;"/>
  <path d="M 353.421 238.098 Q 353.753 238.098 353.933 238.286 Q 354.114 238.474 354.114 238.757 Q 354.114 239.036 353.933 239.219 Q 353.753 239.402 353.421 239.402 Q 353.103 239.402 352.918 239.221 Q 352.732 239.04 352.732 238.757 Q 352.732 238.474 352.913 238.286 Q 353.093 238.098 353.421 238.098 Z" style="fill: rgb(255, 253, 253); stroke-miterlimit: 5; stroke-width: 4px; white-space: pre;"/>
  <path style="stroke: rgb(255, 252, 252);" d="M 257.994 248.039 L 257.994 218.566"/>
  <path style="stroke: rgb(255, 252, 252);" d="M 295.43 231.14 L 295.43 218.201"/>
  <path style="stroke: rgb(255, 252, 252);" d="M 257.521 247.539 L 295.951 247.539"/>
  <path style="stroke: rgb(255, 252, 252);" d="M 257.495 218.606 L 295.925 218.606"/>
  <path style="stroke: rgb(255, 252, 252); fill: rgb(255, 253, 253);" d="M 295.449 247.989 L 295.449 241.288"/>
</svg>